<svg width="20" height="20" fill="none" xmlns="http://www.w3.org/2000/svg"><path d="M18 10a8 8 0 11-16 0 8 8 0 0116 0z" stroke="currentColor" stroke-width="2"/><circle cx="9.78" cy="13.947" r="1.05" fill="currentColor"/><path d="M6.5 7.852C6.56 6.199 7.794 5 10.042 5 12.115 5 13.5 6.102 13.5 7.642c0 1.067-.575 1.813-1.604 2.378-.992.537-1.272.892-1.272 1.583V12H8.87l-.008-.474c-.068-1.046.37-1.673 1.415-2.238.939-.523 1.256-.893 1.256-1.583 0-.725-.635-1.248-1.589-1.248-.976 0-1.604.544-1.665 1.395H6.5z" fill="currentColor"/></svg>