<svg width="20" height="20" fill="none" xmlns="http://www.w3.org/2000/svg"><path fill-rule="evenodd" clip-rule="evenodd" d="M6 8a4 4 0 014-4c.865 0 1.984.398 2.793 1.207l1.414-1.414C13.017 2.602 11.387 2 10 2a6 6 0 00-4.78 9.627c-.478.27-.894.605-1.235 1.01-.674.8-.985 1.789-.985 2.863V18h2v-2.5c0-.676.189-1.188.515-1.575.275-.326.694-.62 1.311-.832.92.575 2.009.907 3.174.907a5.972 5.972 0 003.174-.907c.617.212 1.036.506 1.311.832.326.387.515.899.515 1.575V18h2v-2.5c0-1.074-.311-2.063-.985-2.863a4.464 4.464 0 00-1.235-1.01A5.974 5.974 0 0016 8c0-.41-.041-.81-.12-1.199L15.717 6H10.91c-.53 0-.682 0-.834-.066-.095-.041-.33-.18-.682-.881l-1.788.894c.449.898.963 1.51 1.668 1.82.566.247 1.172.24 1.578.234L11 8h3a4 4 0 01-8 0z" fill="currentColor"/></svg>