<svg width="20" height="20" fill="none" xmlns="http://www.w3.org/2000/svg"><path fill-rule="evenodd" clip-rule="evenodd" d="M10.838 7.823c-.885 0-1.52-.055-2.274-.281-1.176-.353-2.117-1.047-2.676-2.16l1.78-.9c.517 1.028 1.562 1.341 3.17 1.341h7.14l.26.603A8.997 8.997 0 0118.975 10c0 4.97-4.017 9-8.972 9-4.955 0-8.972-4.03-8.972-9s4.017-9 8.972-9c2.294 0 4.455.868 6.103 2.403l-1.357 1.465A6.937 6.937 0 0010.002 3c-3.854 0-6.978 3.134-6.978 7s3.124 7 6.978 7c3.854 0 6.979-3.134 6.979-7 0-.75-.118-1.482-.344-2.177h-5.8z" fill="currentColor"/><path fill-rule="evenodd" clip-rule="evenodd" d="M14.915 10.502H13.42c0-.323-.275-.592-.623-.592s-.623.27-.623.592h-1.495c0-1.16.952-2.092 2.118-2.092s2.118.933 2.118 2.092zM9.43 10.502H7.936c0-.323-.275-.592-.623-.592s-.623.27-.623.592H5.194c0-1.16.952-2.092 2.118-2.092s2.119.933 2.119 2.092zM5.964 14.086l1.394-1.43a3.838 3.838 0 002.698 1.095c1.032 0 1.994-.4 2.703-1.099l1.397 1.428a5.828 5.828 0 01-4.1 1.67 5.829 5.829 0 01-4.092-1.664z" fill="currentColor"/></svg>