<?xml version="1.0" encoding="UTF-8"?>
<svg width="40px" height="40px" viewBox="0 0 40 40" version="1.1" xmlns="http://www.w3.org/2000/svg" xmlns:xlink="http://www.w3.org/1999/xlink">
    <!-- Generator: Sketch 61.2 (89653) - https://sketch.com -->
    <title>Icons/40px/car-40</title>
    <desc>Created with Sketch.</desc>
    <g id="Icons/40px/car-40" stroke="none" stroke-width="1" fill="none" fill-rule="evenodd">
        <g>
            <rect id="invisible-40" x="0" y="0" width="40" height="40"></rect>
            <g id="outlines" transform="translate(2.000000, 7.000000)" fill="#FF0000" fill-rule="nonzero">
                <path d="M18,1.15463195e-13 C23.4063633,1.15463195e-13 26.1671574,0.752943855 27.7071068,2.29289322 C28.4352999,3.02108632 29.4012686,4.60488202 30.6740262,7.11500134 L34.3922323,7.85864255 C35.3270807,8.04561223 36,8.86644186 36,9.8198039 L36,11 C36,12.1045695 35.1045695,13 34,13 L33.3595678,13 C33.78422,14.5491082 34,16.1495377 34,17.7587202 L34,21 C34,21.7402824 33.5978014,22.3866262 33,22.7324356 L33,24 C33,25.1045695 32.1045695,26 31,26 L28,26 C26.8954305,26 26,25.1045695 26,24 L26,23 L10,23 L10,24 C10,25.1045695 9.1045695,26 8,26 L5,26 C3.8954305,26 3,25.1045695 3,24 L3,22.7324356 C2.40219863,22.3866262 2,21.7402824 2,21 L2,17.7587202 C2,16.1495377 2.21578004,14.5491082 2.64043221,13 L2,13 C0.8954305,13 0,12.1045695 0,11 L0,9.8198039 C0,8.86644186 0.672919336,8.04561223 1.60776773,7.85864255 L5.32597376,7.11500134 C6.59873141,4.60488202 7.56470012,3.02108632 8.29289322,2.29289322 C9.83284258,0.752943855 12.5936367,1.15463195e-13 18,1.15463195e-13 Z M18,2 C13.0730299,2 10.7921574,2.62205614 9.70710678,3.70710678 C9.14342834,4.27078523 8.17870657,5.87865484 6.89442719,8.4472136 L6.67570226,8.88466345 L2,9.8198039 L2,11 L5.38742589,11 L4.82106723,12.699076 C4.27724606,14.3305395 4,16.0390067 4,17.7587202 L4,18 L23,18 L23,20 L4,20 L4,21 L5,21 L5,24 L8,24 L8,21 L28,21 L28,24 L31,24 L31,21 L32,21 L32,20 L26,20 L26,18 L32,18 L32,17.7587202 C32,16.0390067 31.7227539,14.3305395 31.1789328,12.699076 L30.6125741,11 L34,11 L34,9.8198039 L29.3242977,8.88466345 L29.1055728,8.4472136 C27.8212934,5.87865484 26.8565717,4.27078523 26.2928932,3.70710678 C25.2078426,2.62205614 22.9269701,2 18,2 Z M9,11 C10.6568542,11 12,12.3431458 12,14 C12,15.6568542 10.6568542,17 9,17 C7.34314575,17 6,15.6568542 6,14 C6,12.3431458 7.34314575,11 9,11 Z M27,11 C28.6568542,11 30,12.3431458 30,14 C30,15.6568542 28.6568542,17 27,17 C25.3431458,17 24,15.6568542 24,14 C24,12.3431458 25.3431458,11 27,11 Z M9,13 C8.44771525,13 8,13.4477153 8,14 C8,14.5522847 8.44771525,15 9,15 C9.55228475,15 10,14.5522847 10,14 C10,13.4477153 9.55228475,13 9,13 Z M27,13 C26.4477153,13 26,13.4477153 26,14 C26,14.5522847 26.4477153,15 27,15 C27.5522847,15 28,14.5522847 28,14 C28,13.4477153 27.5522847,13 27,13 Z M24.8320503,4.4452998 L27.8685171,9 L10,9 L10,7 L24.1314829,7 L23.1679497,5.5547002 L24.8320503,4.4452998 Z" id="Combined-Shape"></path>
            </g>
        </g>
    </g>
</svg>