<?xml version="1.0" encoding="UTF-8"?>
<svg width="40px" height="40px" viewBox="0 0 40 40" version="1.1" xmlns="http://www.w3.org/2000/svg" xmlns:xlink="http://www.w3.org/1999/xlink">
    <!-- Generator: Sketch 61.2 (89653) - https://sketch.com -->
    <title>Icons/40px/car-damage-40</title>
    <desc>Created with Sketch.</desc>
    <g id="Icons/40px/car-damage-40" stroke="none" stroke-width="1" fill="none" fill-rule="evenodd">
        <g>
            <rect id="invisible-40" x="0" y="0" width="40" height="40"></rect>
            <g id="outlines" transform="translate(1.000000, 5.000000)" fill="#FF0000" fill-rule="nonzero">
                <path d="M18.614,0 C27.716,0 29.94,2.71 30.288,3.242 L30.288,3.242 L30.288,3.243 L33.112,7.516 C35.75,7.6 38,8.05 38,10 L38,10 L38,11.667 C38,12.227 37.63,13.301 36.226,13.354 C36.16,13.357 36.082,13.359 35.992,13.359 L35.992,13.359 L36.307,14.579 L36.348,14.791 L36.348,20.844 L36.338,22.402 L36.338,22.402 L36.348,22.5 L36.348,25 C36.348,25.618 36.015,26.157 35.52,26.445 L35.52,26.445 L35.522,28.333 C35.522,29.254 34.782,30 33.87,30 L33.87,30 L30.565,30 C29.653,30 28.913,29.254 28.913,28.333 L28.913,28.333 L28.913,26.667 L9.087,26.667 L9.087,28.333 C9.087,29.254 8.348,30 7.435,30 L7.435,30 L4.131,30 C3.218,30 2.479,29.254 2.479,28.334 L2.479,28.334 L2.479,26.444 C1.985,26.156 1.652,25.617 1.652,25 L1.652,25 L1.652,14.795 L1.702,14.596 L2.008,13.359 C1.919,13.358 1.84,13.357 1.774,13.354 C0.371,13.301 0,12.227 0,11.667 L0,11.667 L0,10 C0,8.05 2.25,7.6 4.888,7.516 L4.888,7.516 L7.627,3.373 C8.189,2.175 10.347,0.005 18.614,0 Z M18.586,1.667 C9.89,1.672 9.086,4.167 9.086,4.167 L9.086,4.167 L5.781,9.167 C5.781,9.167 1.651,9.193 1.651,10 L1.651,10 L1.651,11.667 C1.651,11.688 1.926,11.694 2.294,11.694 C3.028,11.694 4.13,11.667 4.13,11.667 L4.13,11.667 L3.303,15 L3.303,20.833 L22.303,20.833 L22.303,22.5 L3.303,22.5 L3.303,25 L4.13,25 L4.13,28.333 L7.435,28.333 L7.435,25 L30.565,25 L30.565,28.333 L33.87,28.333 L33.87,25 L34.696,25 L34.696,20.833 L34.732,15 L33.87,11.667 C33.87,11.667 34.971,11.694 35.705,11.694 C36.073,11.694 36.348,11.687 36.348,11.667 L36.348,11.667 L36.346,11.667 L36.346,10 C36.346,9.24865517 32.7660119,9.17430083 32.2722204,9.16761864 L32.216,9.167 L28.912,4.167 C28.912,4.167 27.285,1.667 18.586,1.667 Z M31.315,20.834 L33.516,23.004 L32.361,24.196 L30.642,22.5 L24.37,22.5 L24.37,20.834 L31.315,20.834 Z M8.673,13.334 C10.268,13.334 11.565,14.639 11.565,16.244 C11.565,17.849 10.268,19.154 8.674,19.154 L8.674,19.155 C7.08,19.155 5.783,17.849 5.783,16.244 C5.783,14.639 7.08,13.334 8.673,13.334 Z M29.326,13.333 L29.326,15 C28.6389578,15 28.082,15.5569578 28.082,16.244 C28.082,16.9310422 28.6389578,17.488 29.326,17.488 C30.0089807,17.4858077 30.5622562,16.9329787 30.565,16.25 L30.565,16.25 L32.216,16.25 C32.214,17.853 30.918,19.155 29.326,19.155 C27.732,19.155 26.435,17.849 26.435,16.244 C26.435,14.639 27.732,13.333 29.326,13.333 L29.326,13.333 Z M8.674,15 C7.98695777,15 7.43,15.5569578 7.43,16.244 C7.43,16.9310422 7.98695777,17.488 8.674,17.488 C9.36104223,17.488 9.918,16.9310422 9.918,16.244 C9.918,15.5569578 9.36104223,15 8.674,15 Z M20.578,2.803 L21.108,3.552 L25.654,3.722 L24.599,6.548 L28.185,6.13 L30.461,9.549 L30.458,9.55 L31.36,10.833 L8.26,10.833 L8.26,9.167 L28.217,9.167 L27.374,7.902 L22.098,8.516 L23.298,5.302 L20.236,5.187 L19.233,3.773 L20.578,2.803 Z" id="Combined-Shape"></path>
            </g>
        </g>
    </g>
</svg>