<?xml version="1.0" encoding="utf-8"?><svg xmlns="http://www.w3.org/2000/svg" xmlns:xlink="http://www.w3.org/1999/xlink"><symbol fill="none" viewBox="0 0 96 96" id="call-center-multicolor-96" xmlns="http://www.w3.org/2000/svg"><path fill-rule="evenodd" clip-rule="evenodd" d="M48 17.5c-15.742 0-28.5 12.758-28.5 28.5 0 3.696.466 6.665 1.932 11.552l.014.046a4.897 4.897 0 01.156.643 2.5 2.5 0 01.015.84c-.031.177-.12.541-.425.87-.367.392-.861.54-1.309.504C12.4 59.885 6.5 53.63 6.5 46s5.9-13.887 13.386-14.456l.016.202C25.103 21.51 35.732 14.5 48 14.5a31.38 31.38 0 0120.476 7.561l-1.952 2.278A28.38 28.38 0 0048 17.5zM18.564 34.76C13.384 35.877 9.5 40.488 9.5 46c0 5.378 3.699 9.899 8.69 11.152C16.945 52.76 16.5 49.711 16.5 46c0-3.96.73-7.749 2.064-11.24zm57.785-2.506A31.39 31.39 0 0179.5 46c0 14.947-10.881 26.67-24.652 29.959l-.696-2.918C66.762 70.03 76.5 59.373 76.5 46c0-4.458-1.026-8.684-2.85-12.434l2.7-1.312z" fill="#005AA0"/><path fill-rule="evenodd" clip-rule="evenodd" d="M72.772 31.667A14.678 14.678 0 0175 31.5c8.008 0 14.5 6.492 14.5 14.5S83.008 60.5 75 60.5v-3c6.352 0 11.5-5.148 11.5-11.5S81.352 34.5 75 34.5c-.607 0-1.2.045-1.772.133l-.456-2.966z" fill="#005AA0"/><path fill-rule="evenodd" clip-rule="evenodd" d="M59.153 53.959A14.489 14.489 0 0148 59.189c-4.482 0-8.5-2.03-11.154-5.232l2.309-1.915A11.457 11.457 0 0048 56.19c3.556 0 6.74-1.618 8.847-4.15l2.306 1.919z" fill="#E30613"/><path fill-rule="evenodd" clip-rule="evenodd" d="M48 69.5a4.5 4.5 0 100 9 4.5 4.5 0 000-9zM40.5 74a7.5 7.5 0 1115 0 7.5 7.5 0 01-15 0zm-1.257-43.181c-2.102-1.781-3.675-3.719-4.504-5.007l2.522-1.623c.671 1.042 2.048 2.754 3.921 4.34 1.876 1.59 4.156 2.974 6.632 3.505 1.593.34 3.996.498 6.816.521 2.793.023 5.9-.084 8.854-.24a332.29 332.29 0 007.878-.521l1.287-.1c1.439-.111 2.498-.194 2.851-.194v3c-.226 0-1.075.066-2.435.172l-1.474.113a338.07 338.07 0 01-7.95.526c-2.983.157-6.158.268-9.036.244-2.852-.023-5.512-.18-7.42-.588-3.123-.67-5.843-2.37-7.942-4.148z" fill="#005AA0"/></symbol><symbol fill="none" viewBox="0 0 96 96" id="check-success-multicolor-96" xmlns="http://www.w3.org/2000/svg"><path fill-rule="evenodd" clip-rule="evenodd" d="M48 13.5c-19.054 0-34.5 15.446-34.5 34.5 0 19.054 15.446 34.5 34.5 34.5 19.054 0 34.5-15.446 34.5-34.5 0-19.054-15.446-34.5-34.5-34.5zM10.5 48c0-20.71 16.79-37.5 37.5-37.5S85.5 27.29 85.5 48 68.71 85.5 48 85.5 10.5 68.71 10.5 48z" fill="#005AA0"/><path fill-rule="evenodd" clip-rule="evenodd" d="M36.918 19.17c1-.438 2.027-.83 3.078-1.172L41 20.83a30.21 30.21 0 00-4.982 2.133 29.824 29.824 0 00-3.786 2.427 29.37 29.37 0 00-3.71 3.323 28.522 28.522 0 00-4.156 5.668 27.559 27.559 0 00-2.362 5.617L19 39.185a30.474 30.474 0 012.612-6.212 31.508 31.508 0 014.592-6.264 32.451 32.451 0 014.099-3.67 32.973 32.973 0 016.615-3.868z" fill="#E30613"/><path fill-rule="evenodd" clip-rule="evenodd" d="M66.879 39.01L44.28 61.88 30.879 48.484l2.074-2.145 11.315 11.309 20.524-20.77 2.087 2.133z" fill="#005AA0"/></symbol><symbol fill="none" viewBox="0 0 96 96" id="co-applicants-multicolor-96" xmlns="http://www.w3.org/2000/svg"><path fill-rule="evenodd" clip-rule="evenodd" d="M74 3v8h-3V3h3zm12 5l-4 6.928-2.598-1.5 4-6.928L86 8zm7.928 10L87 22l-1.5-2.598 6.928-4 1.5 2.598z" fill="#005AA0"/><path fill-rule="evenodd" clip-rule="evenodd" d="M46.814 31.68l.002.002L48 32.86l1.184-1.18s.002 0 .003-.002c3.59-3.573 9.53-3.572 13.12.003 3.59 3.576 3.59 9.494 0 13.07L48 59 33.693 44.752c-3.59-3.576-3.59-9.494 0-13.07 3.59-3.575 9.53-3.576 13.121-.002zM48 54.775l12.186-12.136c2.419-2.41 2.419-6.435 0-8.845-2.42-2.408-6.462-2.408-8.88 0L48 37.087l-3.305-3.291c-2.42-2.41-6.462-2.41-8.88 0-2.42 2.409-2.42 6.435 0 8.844L48 54.775z" fill="#E30613"/><path fill-rule="evenodd" clip-rule="evenodd" d="M6.5 40c0-15.188 12.312-27.5 27.5-27.5h28c15.188 0 27.5 12.312 27.5 27.5v3c0 15.188-12.312 27.5-27.5 27.5h-7v-3h7c13.532 0 24.5-10.968 24.5-24.5v-3c0-13.532-10.968-24.5-24.5-24.5H34C20.468 15.5 9.5 26.468 9.5 40v3c0 13.532 10.968 24.5 24.5 24.5h3.75l9.75 13V68h3v21.5l-14.25-19H34C18.812 70.5 6.5 58.188 6.5 43v-3z" fill="#005AA0"/></symbol><symbol fill="none" viewBox="0 0 96 96" id="not-accepted-multicolor-96" xmlns="http://www.w3.org/2000/svg"><path fill-rule="evenodd" clip-rule="evenodd" d="M48 13.5c-19.054 0-34.5 15.446-34.5 34.5 0 19.054 15.446 34.5 34.5 34.5 19.054 0 34.5-15.446 34.5-34.5 0-19.054-15.446-34.5-34.5-34.5zM10.5 48c0-20.71 16.79-37.5 37.5-37.5S85.5 27.29 85.5 48 68.71 85.5 48 85.5 10.5 68.71 10.5 48z" fill="#005AA0"/><path fill-rule="evenodd" clip-rule="evenodd" d="M60.065 75.722c-1 .478-2.028.905-3.08 1.278L56 73.908a28.798 28.798 0 004.992-2.329 29.707 29.707 0 003.793-2.648 30.444 30.444 0 003.716-3.625 31.12 31.12 0 004.161-6.182A31.556 31.556 0 0075.026 53l2.974.896a34.93 34.93 0 01-2.616 6.777 34.386 34.386 0 01-4.597 6.831 33.61 33.61 0 01-4.103 4.002 32.794 32.794 0 01-4.187 2.923c-.79.465-1.602.897-2.432 1.293z" fill="#E30613"/><path fill-rule="evenodd" clip-rule="evenodd" d="M59.864 61.476l-24.252-24 2.11-2.132 24.253 24-2.11 2.132z" fill="#005AA0"/><path fill-rule="evenodd" clip-rule="evenodd" d="M35.612 59.344l24.252-24 2.11 2.132-24.252 24-2.11-2.132z" fill="#005AA0"/></symbol><symbol fill="none" viewBox="0 0 96 96" id="search-multicolor-96" xmlns="http://www.w3.org/2000/svg"><path fill-rule="evenodd" clip-rule="evenodd" d="M45.708 50.708l-4 4-2.122-2.121 4-4 2.122 2.121z" fill="#005AA0"/><path fill-rule="evenodd" clip-rule="evenodd" d="M39.06 57.06l-10 10-2.12-2.12 10-10 2.12 2.12z" fill="#E30613"/><path fill-rule="evenodd" clip-rule="evenodd" d="M10.5 48c0-20.697 16.803-37.5 37.5-37.5S85.5 27.303 85.5 48 68.697 85.5 48 85.5 10.5 68.697 10.5 48zM48 13.5c-19.04 0-34.5 15.46-34.5 34.5S28.96 82.5 48 82.5 82.5 67.04 82.5 48 67.04 13.5 48 13.5z" fill="#005AA0"/><path fill-rule="evenodd" clip-rule="evenodd" d="M55 55c8.284 0 15-6.716 15-15 0-8.284-6.716-15-15-15-8.284 0-15 6.716-15 15 0 8.284 6.716 15 15 15zm0-3c6.627 0 12-5.373 12-12s-5.373-12-12-12-12 5.373-12 12 5.373 12 12 12z" fill="#005AA0"/><path fill-rule="evenodd" clip-rule="evenodd" d="M59 44.676c2.344-2.476 2.344-6.56 0-9.035l2.436-1.983c3.419 3.61 3.419 9.39 0 13L59 44.676z" fill="#E30613"/></symbol><symbol fill="none" viewBox="0 0 96 96" id="technical-problems-multicolor-96" xmlns="http://www.w3.org/2000/svg"><path fill-rule="evenodd" clip-rule="evenodd" d="M49.5 21v9h-3v-9h3zM13 69V45h3v24h-3zm-6-4V49h3v16H7zm79 0V49h3v16h-3zm-6 4V45h3v24h-3z" fill="#005AA0"/><path fill-rule="evenodd" clip-rule="evenodd" d="M48 23c-4.417 0-8-3.584-8-8 0-4.418 3.584-8 8-8 4.414 0 8 3.582 8 8 0 4.417-3.585 8-8 8zm0-3c-2.76 0-5-2.24-5-5s2.24-5 5-5c2.759 0 5 2.24 5 5s-2.241 5-5 5z" fill="#E30613"/><path fill-rule="evenodd" clip-rule="evenodd" d="M60 45a7 7 0 017 7h-3a4.001 4.001 0 00-8 0h-3a7 7 0 017-7zm-25 0a7 7 0 017 7h-3a4 4 0 00-8 0h-3a7 7 0 017-7z" fill="#005AA0"/><path fill-rule="evenodd" clip-rule="evenodd" d="M30 28h36c6.075 0 11 4.925 11 11v34c0 6.075-4.925 11-11 11H30c-6.075 0-11-4.925-11-11V39c0-6.075 4.925-11 11-11zm0 3a8 8 0 00-8 8v34a8 8 0 008 8h36a8 8 0 008-8V39a8 8 0 00-8-8H30z" fill="#005AA0"/><path fill-rule="evenodd" clip-rule="evenodd" d="M38.192 74.796C39.38 74.01 43.59 72 48 72s8.62 2.01 9.808 2.796c3.279 2.168 7.737 1.33 9.958-1.87 2.22-3.202 1.363-7.554-1.916-9.722C63.004 61.323 56.035 58 48 58c-8.035 0-15.004 3.323-17.85 5.204-3.279 2.168-4.136 6.52-1.916 9.721 2.22 3.201 6.68 4.039 9.958 1.87zm-1.77-2.484C37.972 71.292 42.792 69 48 69c5.21 0 10.03 2.292 11.579 3.312 1.881 1.239 4.439.76 5.713-1.069 1.274-1.83.782-4.316-1.1-5.555C61.693 64.041 55.289 61 48 61s-13.691 3.041-16.192 4.688c-1.881 1.239-2.374 3.726-1.1 5.555 1.275 1.83 3.833 2.308 5.714 1.069z" fill="#005AA0"/><path fill-rule="evenodd" clip-rule="evenodd" d="M46 70V60h3v10h-3zm9 2V61h3v11h-3zm-18 0V61h3v11h-3z" fill="#005AA0"/></symbol><symbol fill="none" viewBox="0 0 96 96" id="you-need-to-supplement-multicolor-96" xmlns="http://www.w3.org/2000/svg"><path fill-rule="evenodd" clip-rule="evenodd" d="M35.218 9.875L19.981 31.1l-9.212-13.242 2.462-1.713 6.788 9.758L32.782 8.126l2.436 1.75zm0 24L19.981 55.1l-9.212-13.242 2.462-1.713 6.788 9.758 12.763-17.776 2.436 1.75z" fill="#005AA0"/><path fill-rule="evenodd" clip-rule="evenodd" d="M11 61h22v22H11V61zm3 3v16h16V64H14z" fill="#E30613"/><path fill-rule="evenodd" clip-rule="evenodd" d="M84 22H40v-3h44v3zm0 8H40v-3h44v3zm0 16H40v-3h44v3zm0 8H40v-3h44v3zm0 16H40v-3h44v3zm0 8H40v-3h44v3z" fill="#005AA0"/></symbol></svg>