<?xml version="1.0" encoding="UTF-8" standalone="no"?>
<svg width="32px" height="32px" viewBox="0 0 32 32" version="1.1" xmlns="http://www.w3.org/2000/svg" xmlns:xlink="http://www.w3.org/1999/xlink">
    <!-- Generator: Sketch 39.1 (31720) - http://www.bohemiancoding.com/sketch -->
    <title>breifcase-first-aid-32</title>
    <desc>Created with Sketch.</desc>
    <defs></defs>
    <g id="Page-1" stroke="none" stroke-width="1" fill="none" fill-rule="evenodd">
        <g id="breifcase-first-aid-32" fill="#FF0000">
            <g id="briefcase-first-aid-32-crop" transform="translate(3.000000, 4.000000)">
                <polygon id="Fill-1" points="9 15 12 15 12 18 14 18 14 15 17 15 17 13 14 13 14 10 12 10 12 13 9 13"></polygon>
                <path d="M24,20.6895 C24,21.4125 23.439,22.0005 22.75,22.0005 L22,22.0005 L22,6.0055 L22.72,6.0055 C23.414,6.0265 24,6.6265 24,7.3155 L24,20.6895 Z M2,20.6895 L2,7.3155 C2,6.6265 2.586,6.0265 3.25,6.0055 L4,6.0055 L4,22.0005 L3.25,22.0005 C2.561,22.0005 2,21.4125 2,20.6895 L2,20.6895 Z M10,4.0065 L16,4.0065 L16,2.0005 L10,2.0005 L10,4.0065 Z M6,22.0005 L20,22.0005 L20,6.0065 L6,6.0065 L6,22.0005 Z M22.75,4.0055 L18,4.0055 L18,0.0005 L8,0.0005 L8,4.0055 L3.22,4.0055 C1.444,4.0595 0,5.5435 0,7.3155 L0,20.6895 C0,22.5145 1.458,24.0005 3.25,24.0005 L22.75,24.0005 C24.542,24.0005 26,22.5145 26,20.6895 L26,7.3155 C26,5.5435 24.556,4.0595 22.75,4.0055 L22.75,4.0055 Z" id="Fill-2"></path>
            </g>
        </g>
    </g>
</svg>