<?xml version="1.0" encoding="UTF-8"?>
<svg width="32px" height="32px" viewBox="0 0 32 32" version="1.1" xmlns="http://www.w3.org/2000/svg" xmlns:xlink="http://www.w3.org/1999/xlink">
    <!-- Generator: Sketch 49.3 (51167) - http://www.bohemiancoding.com/sketch -->
    <title>login-phone-32</title>
    <desc>Created with Sketch.</desc>
    <defs></defs>
    <g id="login-phone-32" stroke="none" stroke-width="1" fill="none" fill-rule="evenodd">
        <g id="login-phone-32-crop" transform="translate(16.000000, 16.000000) rotate(-90.000000) translate(-16.000000, -16.000000) translate(3.500000, 3.500000)" fill="#FF0000">
            <path d="M18.8751,9.497 C18.6251,9.747 18.0701,9.747 17.8131,9.493 L15.5391,7.248 L15.3121,7.176 C14.5411,6.927 12.8141,6.941 9.9221,9.801 C6.9451,12.741 7.0661,14.513 7.2561,15.137 L7.3301,15.379 L9.6111,17.632 C9.7491,17.769 9.8241,17.95 9.8251,18.145 C9.8251,18.338 9.7491,18.519 9.6141,18.653 L5.9091,22.315 C5.6501,22.571 5.0991,22.573 4.8401,22.317 L2.6791,20.179 C2.2301,19.735 1.6421,18.324 2.2901,15.846 C2.7731,13.992 4.35450005,11.4785 7.88750005,7.98749995 C12.9635,2.96949995 16.6481,2 18.1111,2 C19.1471,2 19.9891,2.246 20.4231,2.675 L22.5861,4.812 C22.7261,4.95 22.8001,5.127 22.8001,5.322 C22.8001,5.517 22.7261,5.693 22.5851,5.832 L18.8751,9.497 Z M21.8291,1.253 C21.0131,0.445 19.6921,0 18.1111,0 C16.4011,0 12.0855,1.02549995 6.48150005,6.56549995 C2.62550005,10.3745 0.9001,13.246 0.3551,15.341 C-0.3429,18.006 0.0011,20.347 1.2731,21.602 L3.4341,23.739 C3.9361,24.235 4.6431,24.519 5.3721,24.519 C6.1031,24.519 6.8101,24.235 7.3141,23.739 L11.0221,20.073 C11.5401,19.559 11.8251,18.873 11.8251,18.144 C11.8241,17.413 11.5391,16.728 11.0181,16.21 L9.1821,14.397 C9.2331,14.007 9.5531,12.977 11.3281,11.223 C13.1491,9.423 14.1901,9.13 14.5541,9.086 L16.4071,10.917 C17.4131,11.909 19.2941,11.903 20.2841,10.916 L23.9911,7.254 C24.5131,6.739 24.8001,6.053 24.8001,5.322 C24.8001,4.59 24.5121,3.902 23.9911,3.39 L21.8291,1.253 Z" id="Fill-1"></path>
        </g>
    </g>
</svg>