<?xml version="1.0" encoding="UTF-8" standalone="no"?>
<svg width="32px" height="32px" viewBox="0 0 32 32" version="1.1" xmlns="http://www.w3.org/2000/svg" xmlns:xlink="http://www.w3.org/1999/xlink">
    <!-- Generator: Sketch 43.1 (39012) - http://www.bohemiancoding.com/sketch -->
    <title>tab-bank-32</title>
    <desc>Created with Sketch.</desc>
    <defs></defs>
    <g id="Page-1" stroke="none" stroke-width="1" fill="none" fill-rule="evenodd">
        <g id="tab-bank-32" fill-rule="nonzero">
            <g id="tab-bank-32-crop" transform="translate(3.000000, 7.000000)">
                <path d="M23.0100002,16.0000005 C23.628822,16.0000005 24.034173,15.6029184 24,15.0909096 L24.0025653,2.83750894 C24.0321123,2.42579929 23.5864839,2.00000052 23.0100002,2.00000052 L3.02138629,2.00000078 C2.48234977,2.00000078 2.00616137,2.4511102 2.00616137,2.90909172 L2.00616096,15.0909099 C2.00616096,15.5488914 2.48234936,16.0000008 3.02138587,16.0000008 L23.0100002,16.0000005 Z M0.00616096048,15.0909098 L0.00616137231,2.90909169 C0.00616137231,1.32161863 1.40125325,7.80278568e-07 3.02138627,7.80278568e-07 L23.0100002,5.20185495e-07 C24.6970293,5.20185494e-07 26.1141697,1.35408091 26,2.90909143 L25.9974347,15.0193275 C26.1153246,16.6620214 24.7494832,18.0000005 23.0100002,18.0000005 L3.02138589,18.0000008 C1.40125284,18.0000008 0.00616096048,16.6783829 0.00616096048,15.0909098 Z" id="Shape" fill="#005AA0"></path>
                <polygon id="Shape" fill="#005AA0" points="25.0387543 5 1.21591696 5 1.21591696 7 25.0387543 7"></polygon>
                <polygon id="Shape" fill="#E30613" points="4.99999999 11 11 11 11 9 4.99999999 9"></polygon>
            </g>
        </g>
    </g>
</svg>