<?xml version="1.0" encoding="UTF-8" standalone="no"?>
<svg width="32px" height="32px" viewBox="0 0 32 32" version="1.1" xmlns="http://www.w3.org/2000/svg" xmlns:xlink="http://www.w3.org/1999/xlink">
    <!-- Generator: Sketch 43.1 (39012) - http://www.bohemiancoding.com/sketch -->
    <title>tab-loan-32</title>
    <desc>Created with Sketch.</desc>
    <defs></defs>
    <g id="Page-1" stroke="none" stroke-width="1" fill="none" fill-rule="evenodd">
        <g id="tab-loan-32" fill-rule="nonzero">
            <g id="tab-loan-32-crop" transform="translate(3.500000, 2.000000)">
                <polygon id="Shape" fill="#005AA0" points="21.4637623 7.65250926 23.4185906 7.22984368 22.0323753 0.818597972 8.70781045 3.59454899 9.11571896 5.55250983 20.4970364 3.18140203"></polygon>
                <polygon id="Shape" fill="#005AA0" points="5.1193569 4.73131822 22.3613455 8.43074872 20.4924513 17.3532113 11.9915269 15.5080494 11.5672966 17.4625388 22.0369604 19.735024 24.7268898 6.89278069 3.58652545 2.35691708 0.808997386 15.2029844 4.66670292 15.9943086 5.0685912 14.0351032 3.19100261 13.6499568"></polygon>
                <path d="M15.6029412,23.8382353 C15.6029412,22.9792297 14.8884173,22.2647059 14.0294118,22.2647059 C13.1704062,22.2647059 12.4558824,22.9792297 12.4558824,23.8382353 C12.4558824,24.1870993 12.4690831,24.2927055 12.5163437,24.3872266 L12.5705998,24.5182125 C12.5988737,24.603034 12.6744754,24.7218368 12.7962585,24.8477855 C13.1209436,25.2265847 13.5159942,25.4117647 14.0294118,25.4117647 C14.8884173,25.4117647 15.6029412,24.6972409 15.6029412,23.8382353 Z M10.4558824,23.8382353 C10.4558824,21.8746602 12.0658367,20.2647059 14.0294118,20.2647059 C15.9929868,20.2647059 17.6029412,21.8746602 17.6029412,23.8382353 C17.6029412,25.8018104 15.9929868,27.4117647 14.0294118,27.4117647 C12.9267635,27.4117647 11.9790026,26.9675018 11.3298951,26.2056836 C11.0638622,25.9396508 10.8324018,25.585137 10.6980068,25.2211795 C10.4943653,24.7921628 10.4558824,24.456821 10.4558824,23.8382353 Z" id="Shape" fill="#E30613"></path>
                <path d="M8.91176471,19.9852941 C6.53206718,19.9852941 4.60294118,18.0561681 4.60294118,15.6764706 C4.60294118,13.2967731 6.53206718,11.3676471 8.91176471,11.3676471 C11.2914622,11.3676471 13.2205882,13.2967731 13.2205882,15.6764706 C13.2205882,18.0561681 11.2914622,19.9852941 8.91176471,19.9852941 Z M8.91176471,17.9852941 C10.1868927,17.9852941 11.2205882,16.9515986 11.2205882,15.6764706 C11.2205882,14.4013426 10.1868927,13.3676471 8.91176471,13.3676471 C7.63663668,13.3676471 6.60294118,14.4013426 6.60294118,15.6764706 C6.60294118,16.9515986 7.63663668,17.9852941 8.91176471,17.9852941 Z" id="Oval" fill="#005AA0"></path>
            </g>
        </g>
    </g>
</svg>