<?xml version="1.0" encoding="UTF-8" standalone="no"?>
<svg width="32px" height="32px" viewBox="0 0 32 32" version="1.1" xmlns="http://www.w3.org/2000/svg" xmlns:xlink="http://www.w3.org/1999/xlink">
    <!-- Generator: Sketch 43.1 (39012) - http://www.bohemiancoding.com/sketch -->
    <title>tab-offer-32</title>
    <desc>Created with Sketch.</desc>
    <defs></defs>
    <g id="Page-1" stroke="none" stroke-width="1" fill="none" fill-rule="evenodd">
        <g id="tab-offer-32" fill-rule="nonzero">
            <g id="tab-offer-32-crop" transform="translate(1.000000, 1.000000)">
                <polygon id="Stroke-2" fill="#E30613" points="13 18 13 24 15 24 15 18"></polygon>
                <polygon id="Stroke-2" fill="#005AA0" points="6 18 6 24 8 24 8 18"></polygon>
                <polygon id="Stroke-3" fill="#005AA0" points="2 25.0087719 2 12 15 12 15 10 0 10 4.10782519e-15 27.0087719 21 27.0087719 21 15.0552808 19 15.0552808 19 25.0087719"></polygon>
                <path d="M7,12 L7,7 L14,7 L14,12 L7,12 Z M12,10 L12,9 L9,9 L9,10 L12,10 Z" id="Stroke-5" fill="#005AA0"></path>
                <polygon id="Stroke-7" fill="#005AA0" points="5.62982016 15.0013379 4.30718719 12.923092 2.6199057 13.9969081 4.53197864 17.0013379 5.0808994 17.0013379 16.5 17.0013379 16.5 15.0013379"></polygon>
                <path d="M23.7639397,6.84187027 L22.490172,4.49739042 L21.6213558,7.01315905 L18.9602168,6.93669591 L20.7053374,8.9523138 L19.3130127,11.2243604 L21.933336,10.7258863 L23.2071398,13.0704327 L24.0760238,10.5546977 L26.7370958,10.6311033 L24.9919383,8.61544272 L26.384263,6.34339615 L23.7639397,6.84187027 Z M29.9432549,3.88497162 L27.15311,8.43803248 L30.6652939,12.4946122 L25.3105542,12.3408651 L23.5650111,17.3948471 L21.005466,12.6837824 L15.7540209,13.6827849 L18.5441657,9.12972404 L15.0319449,5.07310168 L20.3867967,5.22696392 L22.1322284,0.1728429 L24.6918097,4.88397412 L29.9432549,3.88497162 Z" id="Stroke-1" fill="#005AA0"></path>
            </g>
        </g>
    </g>
</svg>