<svg width="24" height="24" fill="none" xmlns="http://www.w3.org/2000/svg"><path fill-rule="evenodd" clip-rule="evenodd" d="M3 5.002a3 3 0 013-3h8a3 3 0 013 3v2h-2v-2a1 1 0 00-1-1H6a1 1 0 00-1 1v14a1 1 0 001 1h8a1 1 0 001-1v-2h2v2a3 3 0 01-3 3H6a3 3 0 01-3-3v-14z" fill="currentColor"/><path d="M9 13.002a1 1 0 11-2 0 1 1 0 012 0zM13 13.002a1 1 0 11-2 0 1 1 0 012 0zM9 17.002a1 1 0 11-2 0 1 1 0 012 0zM13 17.002a1 1 0 11-2 0 1 1 0 012 0zM7 7.002h6v2H7v-2zM17 13.002v2h2v-2h2v-2h-2v-2h-2v2h-2v2h2z" fill="currentColor"/></svg>