<svg xmlns="http://www.w3.org/2000/svg" width="24" height="24" fill="none"><path fill="currentColor" fill-rule="evenodd" d="M12 4.468H4a1 1 0 00-1 1v14a1 1 0 001 1h8a1 1 0 001-1v-14a1 1 0 00-1-1zm-8-2a3 3 0 00-3 3v14a3 3 0 003 3h8a3 3 0 003-3v-14a3 3 0 00-3-3H4zm15 13v-6h2v6h-2z" clip-rule="evenodd"/><path fill="currentColor" fill-rule="evenodd" d="M17 11.468h6v2h-6v-2z" clip-rule="evenodd"/><path fill="currentColor" d="M7 13.468a1 1 0 11-2 0 1 1 0 012 0zm4 0a1 1 0 11-2 0 1 1 0 012 0zm-4 4a1 1 0 11-2 0 1 1 0 012 0zm4 0a1 1 0 11-2 0 1 1 0 012 0zm-6-10h6v2H5v-2z"/></svg>