<svg width="24" height="24" fill="none" xmlns="http://www.w3.org/2000/svg"><path fill-rule="evenodd" clip-rule="evenodd" d="M16.5 4a1.5 1.5 0 100 3 1.5 1.5 0 000-3zM13 5.5a3.5 3.5 0 116.826 1.094c.223.121.445.262.657.425C21.29 7.637 22 8.614 22 10v3h-2v-3c0-.614-.29-1.053-.733-1.394a3.14 3.14 0 00-.601-.356 3.485 3.485 0 01-2.696.71A4.978 4.978 0 0117 12c0 .897-.236 1.738-.65 2.466 1.248.68 2.65 2.111 2.65 4.617V22h-2v-2.917c0-1.94-1.283-2.805-2.036-3.056A4.978 4.978 0 0112 17a4.978 4.978 0 01-2.964-.973C8.283 16.278 7 17.143 7 19.083V22H5v-2.917c0-2.506 1.402-3.936 2.65-4.617A4.977 4.977 0 017 12c0-1.144.384-2.197 1.03-3.04a3.485 3.485 0 01-2.696-.71 3.141 3.141 0 00-.6.356C4.288 8.946 4 9.386 4 10v3H2v-3c0-1.386.71-2.363 1.517-2.981.212-.163.434-.304.657-.425a3.5 3.5 0 116.379.618A5 5 0 0112 7a5 5 0 011.447.213A3.484 3.484 0 0113 5.5zM12 9a3 3 0 100 6 3 3 0 000-6zM6 5.5a1.5 1.5 0 113 0 1.5 1.5 0 01-3 0z" fill="currentColor"/></svg>