<svg width="24" height="24" fill="none" xmlns="http://www.w3.org/2000/svg"><path d="M21 12a9 9 0 11-18 0 9 9 0 0118 0z" stroke="currentColor" stroke-width="2"/><path d="M8.39 9.225C8.452 7.356 9.726 6 12.046 6c2.14 0 3.57 1.246 3.57 2.988 0 1.207-.593 2.05-1.656 2.689-1.023.607-1.312 1.01-1.312 1.79v.45h-1.813l-.008-.537c-.07-1.183.383-1.892 1.461-2.53.97-.592 1.297-1.01 1.297-1.79 0-.82-.656-1.412-1.64-1.412-1.008 0-1.657.615-1.72 1.577H8.39z" fill="currentColor"/><ellipse cx="11.74" cy="16.739" rx="1.25" ry="1.262" fill="currentColor"/></svg>