<svg width="24" height="24" fill="none" xmlns="http://www.w3.org/2000/svg"><path fill-rule="evenodd" clip-rule="evenodd" d="M6 10a6 6 0 016-6c1.428 0 3.47.46 4.7 2.1l1.6-1.2C16.53 2.54 13.724 2 12 2a8 8 0 00-6.68 12.403c-.932.335-1.676.805-2.227 1.431C2.272 16.768 2 17.91 2 19.084V22h2v-2.916c0-.869.197-1.476.595-1.928.373-.425 1.024-.827 2.18-1.098A7.969 7.969 0 0012 18a7.968 7.968 0 005.226-1.942c1.155.27 1.806.673 2.18 1.098.397.452.594 1.06.594 1.928V22h2v-2.916c0-1.174-.272-2.316-1.093-3.25-.551-.626-1.295-1.096-2.227-1.431A7.963 7.963 0 0020 10c0-.547-.055-1.081-.16-1.599l-.163-.801h-6.476c-.662.001-.963.002-1.255-.126-.255-.111-.64-.4-1.152-1.421l-1.788.894c.609 1.218 1.272 1.98 2.138 2.36.707.308 1.461.3 2.038.295L13.4 9.6h4.587A6 6 0 116 10z" fill="currentColor"/></svg>