<svg xmlns="http://www.w3.org/2000/svg" width="24" height="24" fill="none"><path fill="currentColor" fill-rule="evenodd" d="M14.78 4.174l1.772.925 1.364-2.614-1.773-.925-1.364 2.614zm2.31 1.135l1.363 1.464 2.079-1.935-1.363-1.464L17.09 5.31zm-5.08 6.053c-2.159 0-4.47-1.245-5.125-3.032l1.878-.688c.33.899 1.854 1.72 3.247 1.72h6.56l.253.628a8.723 8.723 0 11-1.681-2.664L15.67 8.68a6.723 6.723 0 101.512 2.68H12.01zm3.675 2.573h-1.5a.654.654 0 10-1.308 0h-1.5a2.154 2.154 0 014.308 0zm-7.116 0h1.5a2.154 2.154 0 00-4.309 0h1.5a.654.654 0 111.309 0zm-.948 3.592l1.29-1.53c.527.446 1.15.684 1.801.684.658 0 1.287-.243 1.819-.698l1.299 1.521c-.886.757-1.972 1.177-3.118 1.177-1.134 0-2.21-.412-3.09-1.154zm11.96-8.466l-.81-1.828 2.696-1.195.81 1.828-2.695 1.195z" clip-rule="evenodd"/></svg>