<svg xmlns="http://www.w3.org/2000/svg" width="96" height="96" fill="none"><path fill-rule="evenodd" clip-rule="evenodd" d="M48 17.5c-15.742 0-28.5 12.758-28.5 28.5 0 3.696.466 6.665 1.932 11.552l.014.046a4.897 4.897 0 01.156.643c.026.15.077.485.015.84-.031.177-.12.541-.425.87-.367.392-.861.54-1.309.504C12.4 59.885 6.5 53.63 6.5 46c0-7.63 5.9-13.887 13.386-14.456l.016.202C25.103 21.51 35.732 14.5 48 14.5a31.38 31.38 0 0120.476 7.561l-1.952 2.278A28.38 28.38 0 0048 17.5zM18.564 34.76C13.384 35.877 9.5 40.488 9.5 46c0 5.378 3.699 9.899 8.69 11.152C16.945 52.76 16.5 49.711 16.5 46c0-3.96.73-7.749 2.064-11.24zm57.785-2.506A31.39 31.39 0 0179.5 46c0 14.947-10.881 26.67-24.652 29.959l-.696-2.918C66.762 70.03 76.5 59.373 76.5 46c0-4.458-1.026-8.684-2.85-12.434l2.7-1.312z" fill="#005AA0"/><path fill-rule="evenodd" clip-rule="evenodd" d="M72.772 31.667A14.678 14.678 0 0175 31.5c8.008 0 14.5 6.492 14.5 14.5S83.008 60.5 75 60.5v-3c6.352 0 11.5-5.148 11.5-11.5S81.352 34.5 75 34.5c-.607 0-1.2.045-1.772.133l-.456-2.966z" fill="#005AA0"/><path fill-rule="evenodd" clip-rule="evenodd" d="M59.153 53.959A14.489 14.489 0 0148 59.189c-4.482 0-8.5-2.03-11.154-5.232l2.309-1.915A11.457 11.457 0 0048 56.19c3.556 0 6.74-1.618 8.847-4.15l2.306 1.919z" fill="#E30613"/><path fill-rule="evenodd" clip-rule="evenodd" d="M48 69.5a4.5 4.5 0 100 9 4.5 4.5 0 000-9zM40.5 74a7.5 7.5 0 1115 0 7.5 7.5 0 01-15 0zM39.243 30.819c-2.102-1.781-3.675-3.719-4.504-5.007l2.522-1.623c.671 1.042 2.048 2.754 3.921 4.34 1.876 1.59 4.156 2.974 6.632 3.505 1.593.34 3.996.498 6.816.521 2.793.023 5.9-.084 8.854-.24 2.95-.155 5.734-.357 7.878-.521l1.287-.1c1.439-.111 2.498-.194 2.851-.194v3c-.226 0-1.075.066-2.435.172l-1.474.113a338.07 338.07 0 01-7.95.526c-2.983.157-6.158.268-9.036.244-2.852-.023-5.512-.18-7.42-.588-3.123-.67-5.843-2.37-7.942-4.148z" fill="#005AA0"/></svg>