<svg width="96" height="96" fill="none" xmlns="http://www.w3.org/2000/svg"><path fill-rule="evenodd" clip-rule="evenodd" d="M48 13.5c-19.054 0-34.5 15.446-34.5 34.5 0 19.054 15.446 34.5 34.5 34.5 19.054 0 34.5-15.446 34.5-34.5 0-19.054-15.446-34.5-34.5-34.5zM10.5 48c0-20.71 16.79-37.5 37.5-37.5S85.5 27.29 85.5 48 68.71 85.5 48 85.5 10.5 68.71 10.5 48z" fill="#005AA0"/><path fill-rule="evenodd" clip-rule="evenodd" d="M36.918 19.17c1-.438 2.027-.83 3.078-1.172L41 20.83a30.21 30.21 0 00-4.982 2.133 29.824 29.824 0 00-3.786 2.427 29.37 29.37 0 00-3.71 3.323 28.522 28.522 0 00-4.156 5.668 27.559 27.559 0 00-2.362 5.617L19 39.185a30.474 30.474 0 012.612-6.212 31.508 31.508 0 014.592-6.264 32.451 32.451 0 014.099-3.67 32.973 32.973 0 016.615-3.868z" fill="#E30613"/><path fill-rule="evenodd" clip-rule="evenodd" d="M66.879 39.01L44.28 61.88 30.879 48.484l2.074-2.145 11.315 11.309 20.524-20.77 2.087 2.133z" fill="#005AA0"/></svg>