<svg xmlns="http://www.w3.org/2000/svg" width="96" height="96" fill="none"><path fill-rule="evenodd" clip-rule="evenodd" d="M74 3v8h-3V3h3zM86 8l-4 6.928-2.598-1.5 4-6.928L86 8zM93.928 18L87 22l-1.5-2.598 6.928-4 1.5 2.598z" fill="#005AA0"/><path fill-rule="evenodd" clip-rule="evenodd" d="M46.814 31.68l.002.002L48 32.86l1.184-1.18s.002 0 .003-.002c3.59-3.573 9.53-3.572 13.12.003 3.59 3.576 3.59 9.494 0 13.07L48 59 33.693 44.752c-3.59-3.576-3.59-9.494 0-13.07 3.59-3.575 9.53-3.576 13.121-.002zM48 54.775l12.186-12.136c2.419-2.41 2.419-6.435 0-8.845-2.42-2.408-6.462-2.408-8.88 0L48 37.087l-3.305-3.291c-2.42-2.41-6.462-2.41-8.88 0-2.42 2.409-2.42 6.435 0 8.844L48 54.775z" fill="#E30613"/><path fill-rule="evenodd" clip-rule="evenodd" d="M6.5 40c0-15.188 12.312-27.5 27.5-27.5h28c15.188 0 27.5 12.312 27.5 27.5v3c0 15.188-12.312 27.5-27.5 27.5h-7v-3h7c13.532 0 24.5-10.968 24.5-24.5v-3c0-13.532-10.968-24.5-24.5-24.5H34C20.468 15.5 9.5 26.468 9.5 40v3c0 13.532 10.968 24.5 24.5 24.5h3.75l9.75 13V68h3v21.5l-14.25-19H34C18.812 70.5 6.5 58.188 6.5 43v-3z" fill="#005AA0"/></svg>