<svg xmlns="http://www.w3.org/2000/svg" width="96" height="96" fill="none"><path fill-rule="evenodd" clip-rule="evenodd" d="M48 13.5c-19.054 0-34.5 15.446-34.5 34.5 0 19.054 15.446 34.5 34.5 34.5 19.054 0 34.5-15.446 34.5-34.5 0-19.054-15.446-34.5-34.5-34.5zM10.5 48c0-20.71 16.79-37.5 37.5-37.5S85.5 27.29 85.5 48 68.71 85.5 48 85.5 10.5 68.71 10.5 48z" fill="#005AA0"/><path fill-rule="evenodd" clip-rule="evenodd" d="M60.065 75.722c-1 .478-2.028.905-3.08 1.278L56 73.908a28.798 28.798 0 004.992-2.329 29.707 29.707 0 003.793-2.648 30.444 30.444 0 003.716-3.625 31.12 31.12 0 004.161-6.182A31.556 31.556 0 0075.026 53l2.974.896a34.93 34.93 0 01-2.616 6.777 34.386 34.386 0 01-4.597 6.831 33.61 33.61 0 01-4.103 4.002 32.794 32.794 0 01-4.187 2.923c-.79.465-1.602.897-2.432 1.293z" fill="#E30613"/><path fill-rule="evenodd" clip-rule="evenodd" d="M59.864 61.476l-24.252-24 2.11-2.132 24.253 24-2.11 2.132z" fill="#005AA0"/><path fill-rule="evenodd" clip-rule="evenodd" d="M35.612 59.344l24.252-24 2.11 2.132-24.252 24-2.11-2.132z" fill="#005AA0"/></svg>