<svg xmlns="http://www.w3.org/2000/svg" width="96" height="96" fill="none"><path fill-rule="evenodd" clip-rule="evenodd" d="M45.708 50.708l-4 4-2.122-2.121 4-4 2.122 2.121z" fill="#005AA0"/><path fill-rule="evenodd" clip-rule="evenodd" d="M39.06 57.06l-10 10-2.12-2.12 10-10 2.12 2.12z" fill="#E30613"/><path fill-rule="evenodd" clip-rule="evenodd" d="M10.5 48c0-20.697 16.803-37.5 37.5-37.5S85.5 27.303 85.5 48 68.697 85.5 48 85.5 10.5 68.697 10.5 48zM48 13.5c-19.04 0-34.5 15.46-34.5 34.5S28.96 82.5 48 82.5 82.5 67.04 82.5 48 67.04 13.5 48 13.5z" fill="#005AA0"/><path fill-rule="evenodd" clip-rule="evenodd" d="M55 55c8.284 0 15-6.716 15-15 0-8.284-6.716-15-15-15-8.284 0-15 6.716-15 15 0 8.284 6.716 15 15 15zm0-3c6.627 0 12-5.373 12-12s-5.373-12-12-12-12 5.373-12 12 5.373 12 12 12z" fill="#005AA0"/><path fill-rule="evenodd" clip-rule="evenodd" d="M59 44.676c2.344-2.476 2.344-6.56 0-9.035l2.436-1.983c3.419 3.61 3.419 9.39 0 13L59 44.676z" fill="#E30613"/></svg>