<svg xmlns="http://www.w3.org/2000/svg" width="96" height="96" fill="none"><path fill-rule="evenodd" clip-rule="evenodd" d="M49.5 21v9h-3v-9h3zM13 69V45h3v24h-3zM7 65V49h3v16H7zM86 65V49h3v16h-3zM80 69V45h3v24h-3z" fill="#005AA0"/><path fill-rule="evenodd" clip-rule="evenodd" d="M48 23c-4.417 0-8-3.584-8-8 0-4.418 3.584-8 8-8 4.414 0 8 3.582 8 8 0 4.417-3.585 8-8 8zm0-3c-2.76 0-5-2.24-5-5s2.24-5 5-5c2.759 0 5 2.24 5 5s-2.241 5-5 5z" fill="#E30613"/><path fill-rule="evenodd" clip-rule="evenodd" d="M60 45c3.866 0 7 3.135 7 7h-3a4.001 4.001 0 00-8 0h-3a7 7 0 017-7zM35 45a7 7 0 017 7h-3a4 4 0 00-8 0h-3a7 7 0 017-7z" fill="#005AA0"/><path fill-rule="evenodd" clip-rule="evenodd" d="M30 28h36c6.075 0 11 4.925 11 11v34c0 6.075-4.925 11-11 11H30c-6.075 0-11-4.925-11-11V39c0-6.075 4.925-11 11-11zm0 3a8 8 0 00-8 8v34a8 8 0 008 8h36a8 8 0 008-8V39a8 8 0 00-8-8H30z" fill="#005AA0"/><path fill-rule="evenodd" clip-rule="evenodd" d="M38.192 74.796C39.38 74.01 43.59 72 48 72s8.62 2.01 9.808 2.796c3.279 2.168 7.737 1.33 9.958-1.87 2.22-3.202 1.363-7.554-1.916-9.722C63.004 61.323 56.035 58 48 58c-8.035 0-15.004 3.323-17.85 5.204-3.279 2.168-4.136 6.52-1.916 9.721 2.22 3.201 6.68 4.039 9.958 1.87zm-1.77-2.484C37.972 71.292 42.792 69 48 69c5.21 0 10.03 2.292 11.579 3.312 1.881 1.239 4.439.76 5.713-1.069 1.274-1.83.782-4.316-1.1-5.555C61.693 64.041 55.289 61 48 61s-13.691 3.041-16.192 4.688c-1.881 1.239-2.374 3.726-1.1 5.555 1.275 1.83 3.833 2.308 5.714 1.069z" fill="#005AA0"/><path fill-rule="evenodd" clip-rule="evenodd" d="M46 70V60h3v10h-3zM55 72V61h3v11h-3zM37 72V61h3v11h-3z" fill="#005AA0"/></svg>