<svg xmlns="http://www.w3.org/2000/svg" width="96" height="96" fill="none"><path fill-rule="evenodd" clip-rule="evenodd" d="M35.218 9.875L19.981 31.1l-9.212-13.242 2.462-1.713 6.788 9.758L32.782 8.126l2.436 1.75zm0 24L19.981 55.1l-9.212-13.242 2.462-1.713 6.788 9.758 12.763-17.776 2.436 1.75z" fill="#005AA0"/><path fill-rule="evenodd" clip-rule="evenodd" d="M11 61h22v22H11V61zm3 3v16h16V64H14z" fill="#E30613"/><path fill-rule="evenodd" clip-rule="evenodd" d="M84 22H40v-3h44v3zM84 30H40v-3h44v3zM84 46H40v-3h44v3zM84 54H40v-3h44v3zM84 70H40v-3h44v3zM84 78H40v-3h44v3z" fill="#005AA0"/></svg>