<?xml version="1.0" encoding="UTF-8"?>
<svg width="24px" height="24px" viewBox="0 0 24 24" version="1.1" xmlns="http://www.w3.org/2000/svg" xmlns:xlink="http://www.w3.org/1999/xlink">
    <!-- Generator: Sketch 50.2 (55047) - http://www.bohemiancoding.com/sketch -->
    <title>notification-swish-24</title>
    <desc>Created with Sketch.</desc>
    <defs></defs>
    <g id="notification-swish-24" stroke="none" stroke-width="1" fill="none" fill-rule="evenodd">
        <g id="notification-swish-20" transform="translate(4.000000, 4.000000)" fill="#FF0000" fill-rule="nonzero">
            <path d="M5.041,15.452 L5.382,15.032 C7.7,15.684 10.251,14.839 11.807,12.937 C13.889,10.379 13.532,6.513 10.915,4.371 L10.439,4.014 L12.603,1.479 L13.041,1.808 C14.904,3.288 16,5.534 16,8 C16,12.438 12.438,16 8,16 C7.014,16 6.027,15.836 5.041,15.452 Z M3.014,14.247 C1.096,12.712 0,10.411 0,8 C0,3.562 3.562,0 8,0 C9.151,0 10.246,0.219 11.233,0.712 L10.872,1.11 C8.384,0.336 5.75,1.042 4.133,3.062 C2.051,5.68 2.468,9.428 5.085,11.629 L5.561,11.986 L3.397,14.575 L3.014,14.247 Z" id="notification-swish-20-crop"></path>
        </g>
    </g>
</svg>