<svg height="32" width="28" xmlns="http://www.w3.org/2000/svg"><g fill="none" fill-rule="evenodd"><path d="M15 30v2H7v-2z" fill="#e30613" fill-rule="nonzero"/><path d="M-6-4h40v40H-6z"/><path d="M22 30h4V19.503l-6.538-4.857v-4.36h-4.829L13.237 7.69 9 6.381V2H2v15.3h7.916l3.01-1.442 5.207 3.324-1.323 3.802L22 25.47zm-2 0v-3.27l-5.667-2.714 1.391-3.998-2.936-1.876L10.37 19.3H2V30h3v2H0V0h28v32H17v-2zm6-12.989V2H11v2.906l3.61 1.117 1.218 2.263h5.634v5.354z" fill="red" fill-rule="nonzero"/></g></svg>