<svg width="32" height="32" fill="none" xmlns="http://www.w3.org/2000/svg"><g clip-path="url(#clip0_9132_809)"><path fill-rule="evenodd" clip-rule="evenodd" d="M3 16C3 8.832 8.832 3 16 3s13 5.832 13 13-5.832 13-13 13S3 23.168 3 16zm2 0c0 6.065 4.935 11 11 11 2.524 0 4.852-.855 6.71-2.29L7.29 9.29A10.944 10.944 0 005 16zm19.178 7.35A10.957 10.957 0 0027 16c0-6.065-4.935-11-11-11-2.822 0-5.4 1.069-7.35 2.822L24.179 23.35z" fill="currentColor"/></g><defs><clipPath id="clip0_9132_809"><path fill="#fff" d="M0 0h32v32H0z"/></clipPath></defs></svg>