<svg width="32" height="32" fill="none" xmlns="http://www.w3.org/2000/svg"><path fill-rule="evenodd" clip-rule="evenodd" d="M3.5 5a3 3 0 013-3h14a3 3 0 013 3v3.778h-2V5a1 1 0 00-1-1h-14a1 1 0 00-1 1v22a1 1 0 001 1h14a1 1 0 001-1v-3.778h2V27a3 3 0 01-3 3h-14a3 3 0 01-3-3V5z" fill="currentColor"/><path d="M11.5 17.5a1.5 1.5 0 11-3 0 1.5 1.5 0 013 0zM11.5 23.5a1.5 1.5 0 11-3 0 1.5 1.5 0 013 0zM18.5 17.5a1.5 1.5 0 11-3 0 1.5 1.5 0 013 0zM18.5 23.5a1.5 1.5 0 11-3 0 1.5 1.5 0 013 0zM8.5 9h10v3h-10V9z" fill="currentColor"/><path fill-rule="evenodd" clip-rule="evenodd" d="M23.5 17v3h2v-3h3v-2h-3v-3h-2v3h-3v2h3z" fill="currentColor"/></svg>