<svg width="32" height="32" fill="none" xmlns="http://www.w3.org/2000/svg"><g clip-path="url(#clip0_2_18)"><path fill-rule="evenodd" clip-rule="evenodd" d="M9 4a4 4 0 104 4h-3l-.148.001c-.406.005-1.012.013-1.578-.235-.705-.309-1.22-.92-1.668-1.819l1.788-.894c.351.702.587.84.682.88C9.228 6 9.379 6 9.91 6h4.806l.163.801a6.023 6.023 0 01-.9 4.548A5.99 5.99 0 0116 11c.55 0 1.256.074 1.99.302A6 6 0 0123 2c1.274 0 3.387.397 4.729 2.186l-1.6 1.2C25.328 4.318 23.978 4 23 4a4 4 0 104 4h-3l-.148.001c-.406.005-1.012.013-1.578-.235-.706-.309-1.22-.92-1.668-1.819l1.788-.894c.351.702.588.84.682.88.152.067.303.067.835.067h4.806l.163.801c.079.388.12.79.12 1.199 0 1.33-.432 2.558-1.164 3.552a4.089 4.089 0 011.352 1.107A3.83 3.83 0 0130 15v6h-2v-6c0-.315-.097-.738-.387-1.109-.239-.304-.654-.634-1.397-.825A5.971 5.971 0 0123 14c-.924 0-1.8-.209-2.581-.582l-1.29.968C18.328 13.318 16.978 13 16 13a4 4 0 104 4h-3l-.148.001c-.406.005-1.012.013-1.578-.235-.705-.309-1.22-.92-1.668-1.819l1.788-.894c.351.702.588.84.682.88.152.067.303.067.835.067h4.806l.163.801a6.022 6.022 0 01-1.044 4.751 4.089 4.089 0 011.352 1.107A3.83 3.83 0 0123 24v6h-2v-6c0-.315-.097-.738-.387-1.109-.239-.304-.654-.634-1.397-.825A5.971 5.971 0 0116 23a5.971 5.971 0 01-3.216-.934c-.743.19-1.158.52-1.397.825-.29.371-.387.794-.387 1.109v6H9v-6c0-.685.203-1.562.812-2.341a4.09 4.09 0 011.352-1.107A5.973 5.973 0 0110 17c0-1.24.376-2.392 1.02-3.349A5.99 5.99 0 019 14a5.971 5.971 0 01-3.216-.934c-.743.19-1.158.52-1.396.825C4.098 14.262 4 14.685 4 15v6H2v-6c0-.685.203-1.562.812-2.341.34-.434.787-.813 1.352-1.107A6 6 0 019 2c1.274 0 3.387.397 4.729 2.186l-1.6 1.2C11.328 4.318 9.978 4 9 4z" fill="currentColor"/></g><defs><clipPath id="clip0_2_18"><path fill="#fff" d="M0 0h32v32H0z"/></clipPath></defs></svg>