<svg width="32" height="32" fill="none" xmlns="http://www.w3.org/2000/svg"><path d="M28 16c0 6.627-5.373 12-12 12S4 22.627 4 16 9.373 4 16 4s12 5.373 12 12z" stroke="currentColor" stroke-width="2"/><path d="M11.62 12.716c.088-2.246 1.602-3.926 4.434-3.926 2.578 0 4.316 1.533 4.316 3.652 0 1.504-.762 2.569-2.05 3.34-1.26.742-1.622 1.26-1.622 2.246v.586h-2.021l-.01-.742c-.049-1.406.547-2.285 1.885-3.086 1.181-.713 1.601-1.27 1.601-2.256 0-1.074-.869-1.855-2.207-1.855-1.347 0-2.216.79-2.304 2.04H11.62z" fill="currentColor"/><circle cx="15.75" cy="22.109" r="1.5" fill="currentColor"/></svg>