<svg width="32" height="32" fill="none" xmlns="http://www.w3.org/2000/svg"><path fill-rule="evenodd" clip-rule="evenodd" d="M23 4H9a1 1 0 00-1 1v22a1 1 0 001 1h14a1 1 0 001-1V5a1 1 0 00-1-1zM9 2a3 3 0 00-3 3v22a3 3 0 003 3h14a3 3 0 003-3V5a3 3 0 00-3-3H9z" fill="currentColor"/><path d="M14 17.5a1.5 1.5 0 11-3 0 1.5 1.5 0 013 0zM14 23.5a1.5 1.5 0 11-3 0 1.5 1.5 0 013 0zM21 17.5a1.5 1.5 0 11-3 0 1.5 1.5 0 013 0zM21 23.5a1.5 1.5 0 11-3 0 1.5 1.5 0 013 0zM11 9h10v3H11V9z" fill="currentColor"/></svg>