<svg xmlns="http://www.w3.org/2000/svg" fill="none" height="32" width="32"><path fill="currentColor" fill-rule="evenodd" d="M21 7.341c-4.783-2.76-10.898-1.122-13.659 3.66-2.76 4.782-1.122 10.897 3.66 13.658a9.965 9.965 0 007.685.972l.538 1.926A11.965 11.965 0 0110 26.391C4.262 23.078 2.296 15.74 5.609 10 8.923 4.262 16.261 2.296 22 5.61c5.737 3.313 7.704 10.647 4.395 16.385l-.879 1.567-1.744-.979L24.66 21c2.76-4.782 1.122-10.897-3.66-13.657z" clip-rule="evenodd"/><path fill="currentColor" fill-rule="evenodd" d="M21.872 17.4l1.932-.518 1.343 5.01 5.01-1.342.518 1.932-6.942 1.86-1.86-6.943z" clip-rule="evenodd"/><path stroke="currentColor" stroke-width="2" d="M18.955 26.594a10.96 10.96 0 01-8.454-1.07c-5.26-3.036-7.063-9.763-4.026-15.023S16.24 3.438 21.5 6.475s7.063 9.764 4.026 15.024l-.882 1.572"/><path stroke="currentColor" stroke-width="2" d="M22.838 17.14l1.602 5.977 5.976-1.601"/></svg>