<svg width="40" height="40" fill="none" xmlns="http://www.w3.org/2000/svg"><g clip-path="url(#clip0_9132_838)"><path fill-rule="evenodd" clip-rule="evenodd" d="M38 20c0 9.941-8.059 18-18 18S2 29.941 2 20 10.059 2 20 2s18 8.059 18 18zm-7.73 12.27A15.935 15.935 0 0120 36c-8.837 0-16-7.163-16-16 0-3.909 1.402-7.49 3.73-10.27l22.54 22.54zm1.45-1.378L9.108 8.28A15.944 15.944 0 0120 4c8.837 0 16 7.163 16 16 0 4.208-1.624 8.036-4.28 10.892z" fill="currentColor"/></g><defs><clipPath id="clip0_9132_838"><path fill="#fff" d="M0 0h40v40H0z"/></clipPath></defs></svg>