<svg width="40" height="40" fill="none" xmlns="http://www.w3.org/2000/svg"><g clip-path="url(#clip0_2_77)"><path fill-rule="evenodd" clip-rule="evenodd" d="M7 9a5 5 0 015-5c1.203 0 2.899.39 3.914 1.743l1.6-1.2C15.958 2.468 13.5 2 12 2a7 7 0 00-5.989 10.626 5.378 5.378 0 00-2.041 1.8c-.734 1.094-.97 2.31-.97 3.24V27h2v-9.333c0-.625.164-1.431.63-2.127.344-.511.874-1 1.708-1.318A6.974 6.974 0 0012 16c.94 0 1.837-.185 2.656-.521A6.973 6.973 0 0013 20c0 1.327.37 2.568 1.011 3.626a5.379 5.379 0 00-2.041 1.8c-.734 1.094-.97 2.31-.97 3.24V38h2v-9.333c0-.625.164-1.431.63-2.127.344-.511.874-1 1.708-1.318A6.974 6.974 0 0020 27c1.79 0 3.424-.672 4.662-1.778.834.318 1.364.807 1.707 1.318.467.696.631 1.502.631 2.127V38h2v-9.333c0-.931-.236-2.147-.97-3.24a5.379 5.379 0 00-2.041-1.801 7.029 7.029 0 00.871-5.025l-.163-.801h-5.649c-.59 0-.815 0-1.037-.096-.174-.076-.486-.29-.917-1.151l-1.788.894c.529 1.058 1.117 1.745 1.903 2.09.637.278 1.316.27 1.808.264l.183-.001h3.796A5 5 0 1120 15c1.203 0 2.899.39 3.914 1.743l1.598-1.198A6.984 6.984 0 0028 16c1.79 0 3.424-.672 4.662-1.778.834.318 1.364.807 1.708 1.318.466.696.63 1.502.63 2.127V27h2v-9.333c0-.931-.236-2.147-.97-3.24a5.379 5.379 0 00-2.041-1.801A7.03 7.03 0 0034.86 7.6l-.163-.801h-5.649c-.59 0-.815 0-1.037-.096-.174-.076-.486-.29-.917-1.151l-1.788.894c.529 1.058 1.117 1.745 1.903 2.09.637.278 1.316.27 1.808.264L29.2 8.8h3.796A5 5 0 1128 4c1.203 0 2.899.39 3.914 1.743l1.6-1.2C31.958 2.468 29.5 2 28 2a7 7 0 00-5.413 11.44A7.927 7.927 0 0020 13c-.94 0-1.837.185-2.656.521A6.973 6.973 0 0019 9a7.03 7.03 0 00-.14-1.399l-.163-.801h-5.649c-.59 0-.815 0-1.037-.096-.175-.076-.486-.29-.917-1.151l-1.788.894c.529 1.058 1.118 1.745 1.903 2.09.637.278 1.316.27 1.808.264L13.2 8.8h3.796A5 5 0 117 9z" fill="currentColor"/></g><defs><clipPath id="clip0_2_77"><path fill="#fff" d="M0 0h40v40H0z"/></clipPath></defs></svg>