<svg width="40" height="40" fill="none" xmlns="http://www.w3.org/2000/svg"><path d="M37 20c0 9.389-7.611 17-17 17S3 29.389 3 20 10.611 3 20 3s17 7.611 17 17z" stroke="currentColor" stroke-width="2"/><path d="M14 14.512C14.16 11.412 16.33 9 20.065 9 23.554 9 26 11.252 26 14.234c0 2.164-1.071 3.699-3.054 4.985-1.897 1.228-2.432 2.062-2.432 3.684V24h-1.925v-1.374c-.015-1.945.825-3.173 2.866-4.489 1.824-1.198 2.504-2.207 2.504-3.815 0-2.076-1.636-3.582-3.966-3.582-2.316 0-3.923 1.462-4.111 3.772H14z" fill="currentColor"/><circle cx="19.6" cy="29.5" r="1.5" fill="currentColor"/></svg>