<svg width="40" height="40" fill="none" xmlns="http://www.w3.org/2000/svg"><path d="M6 25.002v-10H4v10h2zM34 15.002v23h2v-23h-2zM22 25.002h8v11h2v-13H20v13h2v-11zM25.36 14.77l1.28-1.536L20 7.7l-6.64 5.534 1.28 1.536L20 10.304l5.36 4.466z" fill="currentColor"/><path d="M20 4.304L37.36 18.77l1.28-1.536L20 1.7 1.36 17.234l1.28 1.536L20 4.304zM18 38.002h20v-2H18v2z" fill="currentColor"/><path fill-rule="evenodd" clip-rule="evenodd" d="M5 28a4 4 0 014-4c.865 0 1.984.398 2.793 1.207l1.414-1.414C12.017 22.602 10.387 22 9 22a6 6 0 00-4.78 9.627c-.478.27-.894.605-1.235 1.01-.674.8-.985 1.789-.985 2.863V38h2v-2.5c0-.676.189-1.188.515-1.575.275-.326.694-.62 1.311-.832.92.575 2.009.907 3.174.907a5.972 5.972 0 003.174-.907c.617.212 1.036.506 1.311.832.326.388.515.899.515 1.575V38h2v-2.5c0-1.074-.311-2.063-.985-2.863a4.464 4.464 0 00-1.235-1.01A5.974 5.974 0 0015 28c0-.41-.041-.81-.12-1.199L14.717 26H9.91c-.53 0-.682 0-.834-.066-.095-.041-.33-.18-.682-.881l-1.788.894c.449.898.963 1.51 1.668 1.82.566.247 1.172.24 1.578.234L10 28h3a4 4 0 01-8 0z" fill="currentColor"/></svg>